<mxfile host="app.diagrams.net" agent="Mozilla/5.0 (Windows NT 10.0; Win64; x64) AppleWebKit/537.36 (KHTML, like Gecko) Chrome/130.0.0.0 Safari/537.36" version="24.8.6">
  <diagram name="Page-1" id="CrAnxzSsxv3mL4b-ypLw">
    <mxGraphModel grid="1" page="1" gridSize="10" guides="1" tooltips="1" connect="1" arrows="1" fold="1" pageScale="1" pageWidth="827" pageHeight="1169" math="0" shadow="0">
      <root>
        <mxCell id="0" />
        <mxCell id="1" parent="0" />
        <mxCell id="BYSsCyGJhfUe4vBy6HeI-11" style="edgeStyle=orthogonalEdgeStyle;rounded=0;orthogonalLoop=1;jettySize=auto;html=1;exitX=1;exitY=0.5;exitDx=0;exitDy=0;entryX=0;entryY=0.5;entryDx=0;entryDy=0;" edge="1" parent="1" source="BYSsCyGJhfUe4vBy6HeI-10" target="BYSsCyGJhfUe4vBy6HeI-9">
          <mxGeometry relative="1" as="geometry" />
        </mxCell>
        <mxCell id="BYSsCyGJhfUe4vBy6HeI-10" value="Rapid Prototyping" style="rounded=1;whiteSpace=wrap;html=1;verticalAlign=top;" vertex="1" parent="1">
          <mxGeometry x="170" y="210" width="220" height="240" as="geometry" />
        </mxCell>
        <mxCell id="BYSsCyGJhfUe4vBy6HeI-6" style="rounded=0;orthogonalLoop=1;jettySize=auto;html=1;exitX=1;exitY=1;exitDx=0;exitDy=0;entryX=0;entryY=0;entryDx=0;entryDy=0;" edge="1" parent="1" source="BYSsCyGJhfUe4vBy6HeI-1" target="BYSsCyGJhfUe4vBy6HeI-2">
          <mxGeometry relative="1" as="geometry" />
        </mxCell>
        <mxCell id="BYSsCyGJhfUe4vBy6HeI-1" value="Design" style="rhombus;whiteSpace=wrap;html=1;" vertex="1" parent="1">
          <mxGeometry x="240" y="240" width="80" height="80" as="geometry" />
        </mxCell>
        <mxCell id="BYSsCyGJhfUe4vBy6HeI-7" style="rounded=0;orthogonalLoop=1;jettySize=auto;html=1;exitX=0;exitY=1;exitDx=0;exitDy=0;entryX=0;entryY=0;entryDx=0;entryDy=0;" edge="1" parent="1" source="BYSsCyGJhfUe4vBy6HeI-2" target="BYSsCyGJhfUe4vBy6HeI-4">
          <mxGeometry relative="1" as="geometry" />
        </mxCell>
        <mxCell id="BYSsCyGJhfUe4vBy6HeI-2" value="Test" style="rhombus;whiteSpace=wrap;html=1;" vertex="1" parent="1">
          <mxGeometry x="300" y="300" width="80" height="80" as="geometry" />
        </mxCell>
        <mxCell id="BYSsCyGJhfUe4vBy6HeI-5" style="rounded=0;orthogonalLoop=1;jettySize=auto;html=1;exitX=1;exitY=0;exitDx=0;exitDy=0;entryX=0;entryY=1;entryDx=0;entryDy=0;" edge="1" parent="1" source="BYSsCyGJhfUe4vBy6HeI-3" target="BYSsCyGJhfUe4vBy6HeI-1">
          <mxGeometry relative="1" as="geometry" />
        </mxCell>
        <mxCell id="BYSsCyGJhfUe4vBy6HeI-3" value="Review" style="rhombus;whiteSpace=wrap;html=1;" vertex="1" parent="1">
          <mxGeometry x="180" y="300" width="80" height="80" as="geometry" />
        </mxCell>
        <mxCell id="BYSsCyGJhfUe4vBy6HeI-8" style="rounded=0;orthogonalLoop=1;jettySize=auto;html=1;exitX=0;exitY=1;exitDx=0;exitDy=0;entryX=1;entryY=1;entryDx=0;entryDy=0;" edge="1" parent="1" source="BYSsCyGJhfUe4vBy6HeI-4" target="BYSsCyGJhfUe4vBy6HeI-3">
          <mxGeometry relative="1" as="geometry" />
        </mxCell>
        <mxCell id="BYSsCyGJhfUe4vBy6HeI-4" value="Refine" style="rhombus;whiteSpace=wrap;html=1;direction=south;" vertex="1" parent="1">
          <mxGeometry x="240" y="360" width="80" height="80" as="geometry" />
        </mxCell>
        <mxCell id="BYSsCyGJhfUe4vBy6HeI-13" style="edgeStyle=orthogonalEdgeStyle;rounded=0;orthogonalLoop=1;jettySize=auto;html=1;entryX=0;entryY=0.5;entryDx=0;entryDy=0;" edge="1" parent="1" source="BYSsCyGJhfUe4vBy6HeI-9" target="BYSsCyGJhfUe4vBy6HeI-12">
          <mxGeometry relative="1" as="geometry" />
        </mxCell>
        <mxCell id="BYSsCyGJhfUe4vBy6HeI-9" value="Completed Subsystem" style="rhombus;whiteSpace=wrap;html=1;" vertex="1" parent="1">
          <mxGeometry x="430" y="285" width="90" height="90" as="geometry" />
        </mxCell>
        <mxCell id="BYSsCyGJhfUe4vBy6HeI-15" style="edgeStyle=orthogonalEdgeStyle;rounded=0;orthogonalLoop=1;jettySize=auto;html=1;entryX=0.5;entryY=0;entryDx=0;entryDy=0;" edge="1" parent="1" source="BYSsCyGJhfUe4vBy6HeI-12" target="BYSsCyGJhfUe4vBy6HeI-10">
          <mxGeometry relative="1" as="geometry">
            <Array as="points">
              <mxPoint x="595" y="190" />
              <mxPoint x="280" y="190" />
            </Array>
          </mxGeometry>
        </mxCell>
        <mxCell id="BYSsCyGJhfUe4vBy6HeI-17" style="edgeStyle=orthogonalEdgeStyle;rounded=0;orthogonalLoop=1;jettySize=auto;html=1;exitX=1;exitY=0.5;exitDx=0;exitDy=0;entryX=0;entryY=0.5;entryDx=0;entryDy=0;" edge="1" parent="1" source="BYSsCyGJhfUe4vBy6HeI-12">
          <mxGeometry relative="1" as="geometry">
            <mxPoint x="680" y="330" as="targetPoint" />
          </mxGeometry>
        </mxCell>
        <mxCell id="BYSsCyGJhfUe4vBy6HeI-12" value="Unit Testing" style="rounded=0;whiteSpace=wrap;html=1;" vertex="1" parent="1">
          <mxGeometry x="550" y="315" width="90" height="30" as="geometry" />
        </mxCell>
        <mxCell id="BYSsCyGJhfUe4vBy6HeI-18" value="System Integration" style="rounded=1;whiteSpace=wrap;html=1;dashed=1;" vertex="1" parent="1">
          <mxGeometry x="680" y="310" width="90" height="40" as="geometry" />
        </mxCell>
      </root>
    </mxGraphModel>
  </diagram>
</mxfile>
